<?xml version="1.0" encoding="utf-8"?>
<!-- Generator: Adobe Illustrator 17.0.0, SVG Export Plug-In . SVG Version: 6.00 Build 0)  -->
<!DOCTYPE svg PUBLIC "-//W3C//DTD SVG 1.1//EN" "http://www.w3.org/Graphics/SVG/1.1/DTD/svg11.dtd">
<svg version="1.1" id="Layer_1" xmlns="http://www.w3.org/2000/svg" xmlns:xlink="http://www.w3.org/1999/xlink" x="0px" y="0px"
	 width="100px" height="100px" viewBox="0 0 100 100" enable-background="new 0 0 100 100" xml:space="preserve">
<g>
	
		<ellipse fill="none" stroke="#00AEEF" stroke-miterlimit="10" stroke-dasharray="11.8386,11.8386" cx="50.5" cy="49.5" rx="48.5" ry="49.5">
			<animateTransform attributeName="transform"
					attributeType="XML"
					type="rotate"
					from="0 50 50"
					to="360 50 50"
					dur="10s"
					repeatCount="indefinite"
			/>
		</ellipse>
</g>
<ellipse fill="#00AEEF" cx="49.5" cy="50.833" rx="40.5" ry="39.167"/>
<path fill="#FFFFFF" d="M33.083,62.5c0,1.289-1.045,2.333-2.333,2.333l0,0c-1.289,0-2.333-1.045-2.333-2.333v-26
	c0-1.289,1.045-2.333,2.333-2.333l0,0c1.289,0,2.333,1.045,2.333,2.333V62.5z">
	<animateTransform attributeName="transform"
					attributeType="XML"
					type="translate"
					from="0 50 50"
					to="360 50 50"
					dur="1s"
					values="0,6;0,-6;0,6"
					repeatCount="indefinite"
			/>
	
	</path>

<path fill="#FFFFFF" d="M42.417,63c0,1.289-1.045,2.333-2.333,2.333l0,0c-1.289,0-2.333-1.045-2.333-2.333V37
	c0-1.289,1.045-2.333,2.333-2.333l0,0c1.289,0,2.333,1.045,2.333,2.333V63z">
	<animateTransform attributeName="transform"
					attributeType="XML"
					type="translate"
					from="0 50 50"
					to="360 50 50"
					dur="1s"
					values="0,6;0,-6;0,6"
					repeatCount="indefinite"
			/>
	
	</path>
<path fill="#FFFFFF" d="M49.583,62.25c0,1.289-1.045,2.333-2.333,2.333l0,0c-1.289,0-2.333-1.045-2.333-2.333v-26
	c0-1.289,1.045-2.333,2.333-2.333l0,0c1.289,0,2.333,1.045,2.333,2.333V62.25z">
	<animateTransform attributeName="transform"
					attributeType="XML"
					type="translate"
					from="0 50 50"
					to="360 50 50"
					begin=".1"
					dur="1s"
					values="0,6;0,-6;0,6"
					repeatCount="indefinite"
			/>
	
	</path>
<path fill="#FFFFFF" d="M56.917,62.75c0,1.289-1.045,2.333-2.333,2.333l0,0c-1.289,0-2.333-1.045-2.333-2.333v-26
	c0-1.289,1.045-2.333,2.333-2.333l0,0c1.289,0,2.333,1.045,2.333,2.333V62.75z">
	<animateTransform attributeName="transform"
					attributeType="XML"
					type="translate"
					from="0 50 50"
					to="360 50 50"
					begin=".2"
					dur="1s"
					values="0,6;0,-6;0,6"
					repeatCount="indefinite"
			/>
	
	</path>
<path fill="#FFFFFF" d="M63.25,62c0,1.289-1.045,2.333-2.333,2.333l0,0c-1.289,0-2.333-1.045-2.333-2.333V36
	c0-1.289,1.045-2.333,2.333-2.333l0,0c1.289,0,2.333,1.045,2.333,2.333V62z">
	<animateTransform attributeName="transform"
					attributeType="XML"
					type="translate"
					from="0 50 50"
					to="360 50 50"
					begin=".3"
					dur="1s"
					values="0,6;0,-6;0,6"
					repeatCount="indefinite"
			/>
	
	</path>
<path fill="#FFFFFF" d="M70.583,62.5c0,1.289-1.045,2.333-2.333,2.333l0,0c-1.289,0-2.333-1.045-2.333-2.333v-26
	c0-1.289,1.045-2.333,2.333-2.333l0,0c1.289,0,2.333,1.045,2.333,2.333V62.5z">
	<animateTransform attributeName="transform"
					attributeType="XML"
					type="translate"
					from="0 50 50"
					to="360 50 50"
					begin=".4"
					dur="1s"
					values="0,6;0,-6;0,6"
					repeatCount="indefinite"
			/>
	
	</path>
</svg>
